<?xml version="1.0" encoding="utf-8" standalone="no"?>
<!DOCTYPE svg PUBLIC "-//W3C//DTD SVG 1.1//EN"
  "http://www.w3.org/Graphics/SVG/1.1/DTD/svg11.dtd">
<svg xmlns:xlink="http://www.w3.org/1999/xlink" width="693.36pt" height="499.446pt" viewBox="0 0 693.36 499.446" xmlns="http://www.w3.org/2000/svg" version="1.1">
 <metadata>
  <rdf:RDF xmlns:dc="http://purl.org/dc/elements/1.1/" xmlns:cc="http://creativecommons.org/ns#" xmlns:rdf="http://www.w3.org/1999/02/22-rdf-syntax-ns#">
   <cc:Work>
    <dc:type rdf:resource="http://purl.org/dc/dcmitype/StillImage"/>
    <dc:date>2024-07-27T10:00:40.019847</dc:date>
    <dc:format>image/svg+xml</dc:format>
    <dc:creator>
     <cc:Agent>
      <dc:title>Matplotlib v3.8.4, https://matplotlib.org/</dc:title>
     </cc:Agent>
    </dc:creator>
   </cc:Work>
  </rdf:RDF>
 </metadata>
 <defs>
  <style type="text/css">*{stroke-linejoin: round; stroke-linecap: butt}</style>
 </defs>
 <g id="figure_1">
  <g id="patch_1">
   <path d="M 0 499.446 
L 693.36 499.446 
L 693.36 0 
L 0 0 
L 0 499.446 
z
" style="fill: none"/>
  </g>
  <g id="axes_1">
   <g id="patch_2">
    <path d="M 274.68 22.68 
L 274.68 4.68 
L 382.68 4.68 
L 382.68 40.68 
L 274.68 40.68 
z
" clip-path="url(#pc0fca30625)" style="fill: #f0ffff; stroke: #f0ffff; stroke-linejoin: miter"/>
   </g>
   <g id="patch_3">
    <path d="M 76.68 94.68 
L 76.68 76.68 
L 184.68 76.68 
L 184.68 112.68 
L 76.68 112.68 
z
" clip-path="url(#pc0fca30625)" style="fill: #f0ffff; stroke: #f0ffff; stroke-linejoin: miter"/>
   </g>
   <g id="patch_4">
    <path d="M 4.68 166.68 
L 4.68 148.68 
L 112.68 148.68 
L 112.68 184.68 
L 4.68 184.68 
z
" clip-path="url(#pc0fca30625)" style="fill: #f0ffff; stroke: #f0ffff; stroke-linejoin: miter"/>
   </g>
   <g id="patch_5">
    <path d="M 4.68 238.68 
L 4.68 220.68 
L 112.68 220.68 
L 112.68 256.68 
L 4.68 256.68 
z
" clip-path="url(#pc0fca30625)" style="fill: #f0ffff; stroke: #f0ffff; stroke-linejoin: miter"/>
   </g>
   <g id="patch_6">
    <path d="M 4.68 328.68 
L 4.68 292.68 
L 112.68 292.68 
L 112.68 364.68 
L 4.68 364.68 
z
" clip-path="url(#pc0fca30625)" style="fill: #f0ffff; stroke: #f0ffff; stroke-linejoin: miter"/>
   </g>
   <g id="patch_7">
    <path d="M 148.68 166.68 
L 148.68 148.68 
L 256.68 148.68 
L 256.68 184.68 
L 148.68 184.68 
z
" clip-path="url(#pc0fca30625)" style="fill: #f0ffff; stroke: #f0ffff; stroke-linejoin: miter"/>
   </g>
   <g id="patch_8">
    <path d="M 148.68 354.5685 
L 148.68 292.68 
L 256.68 292.68 
L 256.68 416.457 
L 148.68 416.457 
z
" clip-path="url(#pc0fca30625)" style="fill: #f0ffff; stroke: #f0ffff; stroke-linejoin: miter"/>
   </g>
   <g id="patch_9">
    <path d="M 472.68 94.68 
L 472.68 76.68 
L 580.68 76.68 
L 580.68 112.68 
L 472.68 112.68 
z
" clip-path="url(#pc0fca30625)" style="fill: #f0ffff; stroke: #f0ffff; stroke-linejoin: miter"/>
   </g>
   <g id="patch_10">
    <path d="M 364.68 166.68 
L 364.68 148.68 
L 472.68 148.68 
L 472.68 184.68 
L 364.68 184.68 
z
" clip-path="url(#pc0fca30625)" style="fill: #f0ffff; stroke: #f0ffff; stroke-linejoin: miter"/>
   </g>
   <g id="patch_11">
    <path d="M 292.68 238.68 
L 292.68 220.68 
L 400.68 220.68 
L 400.68 256.68 
L 292.68 256.68 
z
" clip-path="url(#pc0fca30625)" style="fill: #f0ffff; stroke: #f0ffff; stroke-linejoin: miter"/>
   </g>
   <g id="patch_12">
    <path d="M 292.68 354.576375 
L 292.68 292.68 
L 400.68 292.68 
L 400.68 416.47275 
L 292.68 416.47275 
z
" clip-path="url(#pc0fca30625)" style="fill: #f0ffff; stroke: #f0ffff; stroke-linejoin: miter"/>
   </g>
   <g id="patch_13">
    <path d="M 436.68 393.723 
L 436.68 292.68 
L 544.68 292.68 
L 544.68 494.766 
L 436.68 494.766 
z
" clip-path="url(#pc0fca30625)" style="fill: #f0ffff; stroke: #f0ffff; stroke-linejoin: miter"/>
   </g>
   <g id="patch_14">
    <path d="M 580.68 166.68 
L 580.68 148.68 
L 688.68 148.68 
L 688.68 184.68 
L 580.68 184.68 
z
" clip-path="url(#pc0fca30625)" style="fill: #f0ffff; stroke: #f0ffff; stroke-linejoin: miter"/>
   </g>
   <g id="patch_15">
    <path d="M 580.68 328.68 
L 580.68 292.68 
L 688.68 292.68 
L 688.68 364.68 
L 580.68 364.68 
z
" clip-path="url(#pc0fca30625)" style="fill: #f0ffff; stroke: #f0ffff; stroke-linejoin: miter"/>
   </g>
   <g id="line2d_1">
    <path d="M 274.68 22.68 
L 274.68 4.68 
L 382.68 4.68 
L 382.68 40.68 
L 274.68 40.68 
L 274.68 22.68 
" clip-path="url(#pc0fca30625)" style="fill: none; stroke: #000000; stroke-width: 2; stroke-linecap: round"/>
   </g>
   <g id="line2d_2">
    <path d="M 76.68 94.68 
L 76.68 76.68 
L 184.68 76.68 
L 184.68 112.68 
L 76.68 112.68 
L 76.68 94.68 
" clip-path="url(#pc0fca30625)" style="fill: none; stroke: #000000; stroke-width: 2; stroke-linecap: round"/>
   </g>
   <g id="line2d_3">
    <path d="M 4.68 166.68 
L 4.68 148.68 
L 112.68 148.68 
L 112.68 184.68 
L 4.68 184.68 
L 4.68 166.68 
" clip-path="url(#pc0fca30625)" style="fill: none; stroke: #000000; stroke-width: 2; stroke-linecap: round"/>
   </g>
   <g id="line2d_4">
    <path d="M 4.68 238.68 
L 4.68 220.68 
L 112.68 220.68 
L 112.68 256.68 
L 4.68 256.68 
L 4.68 238.68 
" clip-path="url(#pc0fca30625)" style="fill: none; stroke: #000000; stroke-width: 2; stroke-linecap: round"/>
   </g>
   <g id="line2d_5">
    <path d="M 4.68 328.68 
L 4.68 292.68 
L 112.68 292.68 
L 112.68 364.68 
L 4.68 364.68 
L 4.68 328.68 
" clip-path="url(#pc0fca30625)" style="fill: none; stroke: #000000; stroke-width: 2; stroke-linecap: round"/>
   </g>
   <g id="line2d_6">
    <path d="M 148.68 166.68 
L 148.68 148.68 
L 256.68 148.68 
L 256.68 184.68 
L 148.68 184.68 
L 148.68 166.68 
" clip-path="url(#pc0fca30625)" style="fill: none; stroke: #000000; stroke-width: 2; stroke-linecap: round"/>
   </g>
   <g id="line2d_7">
    <path d="M 148.68 354.5685 
L 148.68 292.68 
L 256.68 292.68 
L 256.68 416.457 
L 148.68 416.457 
L 148.68 354.5685 
" clip-path="url(#pc0fca30625)" style="fill: none; stroke: #000000; stroke-width: 2; stroke-linecap: round"/>
   </g>
   <g id="line2d_8">
    <path d="M 472.68 94.68 
L 472.68 76.68 
L 580.68 76.68 
L 580.68 112.68 
L 472.68 112.68 
L 472.68 94.68 
" clip-path="url(#pc0fca30625)" style="fill: none; stroke: #000000; stroke-width: 2; stroke-linecap: round"/>
   </g>
   <g id="line2d_9">
    <path d="M 364.68 166.68 
L 364.68 148.68 
L 472.68 148.68 
L 472.68 184.68 
L 364.68 184.68 
L 364.68 166.68 
" clip-path="url(#pc0fca30625)" style="fill: none; stroke: #000000; stroke-width: 2; stroke-linecap: round"/>
   </g>
   <g id="line2d_10">
    <path d="M 292.68 238.68 
L 292.68 220.68 
L 400.68 220.68 
L 400.68 256.68 
L 292.68 256.68 
L 292.68 238.68 
" clip-path="url(#pc0fca30625)" style="fill: none; stroke: #000000; stroke-width: 2; stroke-linecap: round"/>
   </g>
   <g id="line2d_11">
    <path d="M 292.68 354.576375 
L 292.68 292.68 
L 400.68 292.68 
L 400.68 416.47275 
L 292.68 416.47275 
L 292.68 354.576375 
" clip-path="url(#pc0fca30625)" style="fill: none; stroke: #000000; stroke-width: 2; stroke-linecap: round"/>
   </g>
   <g id="line2d_12">
    <path d="M 436.68 393.723 
L 436.68 292.68 
L 544.68 292.68 
L 544.68 494.766 
L 436.68 494.766 
L 436.68 393.723 
" clip-path="url(#pc0fca30625)" style="fill: none; stroke: #000000; stroke-width: 2; stroke-linecap: round"/>
   </g>
   <g id="line2d_13">
    <path d="M 580.68 166.68 
L 580.68 148.68 
L 688.68 148.68 
L 688.68 184.68 
L 580.68 184.68 
L 580.68 166.68 
" clip-path="url(#pc0fca30625)" style="fill: none; stroke: #000000; stroke-width: 2; stroke-linecap: round"/>
   </g>
   <g id="line2d_14">
    <path d="M 580.68 328.68 
L 580.68 292.68 
L 688.68 292.68 
L 688.68 364.68 
L 580.68 364.68 
L 580.68 328.68 
" clip-path="url(#pc0fca30625)" style="fill: none; stroke: #000000; stroke-width: 2; stroke-linecap: round"/>
   </g>
   <g id="line2d_15">
    <path d="M 328.68 40.68 
L 229.68 58.68 
L 139.534829 75.070031 
" clip-path="url(#pc0fca30625)" style="fill: none; stroke: #000000; stroke-width: 2; stroke-linecap: round"/>
   </g>
   <g id="patch_16">
    <path d="M 140.01782 77.72648 
L 130.68 76.68 
L 139.051839 72.413582 
z
" clip-path="url(#pc0fca30625)"/>
   </g>
   <g id="line2d_16">
    <path d="M 328.68 40.68 
L 427.68 58.68 
L 517.825171 75.070031 
" clip-path="url(#pc0fca30625)" style="fill: none; stroke: #000000; stroke-width: 2; stroke-linecap: round"/>
   </g>
   <g id="patch_17">
    <path d="M 518.308161 72.413582 
L 526.68 76.68 
L 517.34218 77.72648 
z
" clip-path="url(#pc0fca30625)"/>
   </g>
   <g id="line2d_17">
    <path d="M 130.68 112.68 
L 94.68 130.68 
L 66.729845 144.655078 
" clip-path="url(#pc0fca30625)" style="fill: none; stroke: #000000; stroke-width: 2; stroke-linecap: round"/>
   </g>
   <g id="patch_18">
    <path d="M 67.937321 147.070031 
L 58.68 148.68 
L 65.522368 142.240124 
z
" clip-path="url(#pc0fca30625)"/>
   </g>
   <g id="line2d_18">
    <path d="M 130.68 112.68 
L 166.68 130.68 
L 194.630155 144.655078 
" clip-path="url(#pc0fca30625)" style="fill: none; stroke: #000000; stroke-width: 2; stroke-linecap: round"/>
   </g>
   <g id="patch_19">
    <path d="M 195.837632 142.240124 
L 202.68 148.68 
L 193.422679 147.070031 
z
" clip-path="url(#pc0fca30625)"/>
   </g>
   <g id="line2d_19">
    <path d="M 58.68 184.68 
L 58.68 202.68 
L 58.68 211.68 
" clip-path="url(#pc0fca30625)" style="fill: none; stroke: #000000; stroke-width: 2; stroke-linecap: round"/>
   </g>
   <g id="patch_20">
    <path d="M 61.38 211.68 
L 58.68 220.68 
L 55.98 211.68 
z
" clip-path="url(#pc0fca30625)"/>
   </g>
   <g id="line2d_20">
    <path d="M 58.68 256.68 
L 58.68 274.68 
L 58.68 283.68 
" clip-path="url(#pc0fca30625)" style="fill: none; stroke: #000000; stroke-width: 2; stroke-linecap: round"/>
   </g>
   <g id="patch_21">
    <path d="M 61.38 283.68 
L 58.68 292.68 
L 55.98 283.68 
z
" clip-path="url(#pc0fca30625)"/>
   </g>
   <g id="line2d_21">
    <path d="M 202.68 184.68 
L 202.68 238.68 
L 202.68 283.68 
" clip-path="url(#pc0fca30625)" style="fill: none; stroke: #000000; stroke-width: 2; stroke-linecap: round"/>
   </g>
   <g id="patch_22">
    <path d="M 205.38 283.68 
L 202.68 292.68 
L 199.98 283.68 
z
" clip-path="url(#pc0fca30625)"/>
   </g>
   <g id="line2d_22">
    <path d="M 526.68 112.68 
L 472.68 130.68 
L 427.21815 145.83395 
" clip-path="url(#pc0fca30625)" style="fill: none; stroke: #000000; stroke-width: 2; stroke-linecap: round"/>
   </g>
   <g id="patch_23">
    <path d="M 428.071965 148.395395 
L 418.68 148.68 
L 426.364335 143.272505 
z
" clip-path="url(#pc0fca30625)"/>
   </g>
   <g id="line2d_23">
    <path d="M 418.68 184.68 
L 382.68 202.68 
L 354.729845 216.655078 
" clip-path="url(#pc0fca30625)" style="fill: none; stroke: #000000; stroke-width: 2; stroke-linecap: round"/>
   </g>
   <g id="patch_24">
    <path d="M 355.937321 219.070031 
L 346.68 220.68 
L 353.522368 214.240124 
z
" clip-path="url(#pc0fca30625)"/>
   </g>
   <g id="line2d_24">
    <path d="M 346.68 256.68 
L 346.68 274.68 
L 346.68 283.68 
" clip-path="url(#pc0fca30625)" style="fill: none; stroke: #000000; stroke-width: 2; stroke-linecap: round"/>
   </g>
   <g id="patch_25">
    <path d="M 349.38 283.68 
L 346.68 292.68 
L 343.98 283.68 
z
" clip-path="url(#pc0fca30625)"/>
   </g>
   <g id="line2d_25">
    <path d="M 418.68 184.68 
L 454.68 238.68 
L 485.687698 285.191547 
" clip-path="url(#pc0fca30625)" style="fill: none; stroke: #000000; stroke-width: 2; stroke-linecap: round"/>
   </g>
   <g id="patch_26">
    <path d="M 487.934234 283.693857 
L 490.68 292.68 
L 483.441162 286.689238 
z
" clip-path="url(#pc0fca30625)"/>
   </g>
   <g id="line2d_26">
    <path d="M 526.68 112.68 
L 580.68 130.68 
L 626.14185 145.83395 
" clip-path="url(#pc0fca30625)" style="fill: none; stroke: #000000; stroke-width: 2; stroke-linecap: round"/>
   </g>
   <g id="patch_27">
    <path d="M 626.995665 143.272505 
L 634.68 148.68 
L 625.288035 148.395395 
z
" clip-path="url(#pc0fca30625)"/>
   </g>
   <g id="line2d_27">
    <path d="M 634.68 184.68 
L 634.68 238.68 
L 634.68 283.68 
" clip-path="url(#pc0fca30625)" style="fill: none; stroke: #000000; stroke-width: 2; stroke-linecap: round"/>
   </g>
   <g id="patch_28">
    <path d="M 637.38 283.68 
L 634.68 292.68 
L 631.98 283.68 
z
" clip-path="url(#pc0fca30625)"/>
   </g>
   <g id="text_1">
    <!-- Drawable -->
    <g transform="translate(295.4125 26.543125) scale(0.14 -0.14)">
     <defs>
      <path id="DejaVuSans-44" d="M 1259 4147 
L 1259 519 
L 2022 519 
Q 2988 519 3436 956 
Q 3884 1394 3884 2338 
Q 3884 3275 3436 3711 
Q 2988 4147 2022 4147 
L 1259 4147 
z
M 628 4666 
L 1925 4666 
Q 3281 4666 3915 4102 
Q 4550 3538 4550 2338 
Q 4550 1131 3912 565 
Q 3275 0 1925 0 
L 628 0 
L 628 4666 
z
" transform="scale(0.015625)"/>
      <path id="DejaVuSans-72" d="M 2631 2963 
Q 2534 3019 2420 3045 
Q 2306 3072 2169 3072 
Q 1681 3072 1420 2755 
Q 1159 2438 1159 1844 
L 1159 0 
L 581 0 
L 581 3500 
L 1159 3500 
L 1159 2956 
Q 1341 3275 1631 3429 
Q 1922 3584 2338 3584 
Q 2397 3584 2469 3576 
Q 2541 3569 2628 3553 
L 2631 2963 
z
" transform="scale(0.015625)"/>
      <path id="DejaVuSans-61" d="M 2194 1759 
Q 1497 1759 1228 1600 
Q 959 1441 959 1056 
Q 959 750 1161 570 
Q 1363 391 1709 391 
Q 2188 391 2477 730 
Q 2766 1069 2766 1631 
L 2766 1759 
L 2194 1759 
z
M 3341 1997 
L 3341 0 
L 2766 0 
L 2766 531 
Q 2569 213 2275 61 
Q 1981 -91 1556 -91 
Q 1019 -91 701 211 
Q 384 513 384 1019 
Q 384 1609 779 1909 
Q 1175 2209 1959 2209 
L 2766 2209 
L 2766 2266 
Q 2766 2663 2505 2880 
Q 2244 3097 1772 3097 
Q 1472 3097 1187 3025 
Q 903 2953 641 2809 
L 641 3341 
Q 956 3463 1253 3523 
Q 1550 3584 1831 3584 
Q 2591 3584 2966 3190 
Q 3341 2797 3341 1997 
z
" transform="scale(0.015625)"/>
      <path id="DejaVuSans-77" d="M 269 3500 
L 844 3500 
L 1563 769 
L 2278 3500 
L 2956 3500 
L 3675 769 
L 4391 3500 
L 4966 3500 
L 4050 0 
L 3372 0 
L 2619 2869 
L 1863 0 
L 1184 0 
L 269 3500 
z
" transform="scale(0.015625)"/>
      <path id="DejaVuSans-62" d="M 3116 1747 
Q 3116 2381 2855 2742 
Q 2594 3103 2138 3103 
Q 1681 3103 1420 2742 
Q 1159 2381 1159 1747 
Q 1159 1113 1420 752 
Q 1681 391 2138 391 
Q 2594 391 2855 752 
Q 3116 1113 3116 1747 
z
M 1159 2969 
Q 1341 3281 1617 3432 
Q 1894 3584 2278 3584 
Q 2916 3584 3314 3078 
Q 3713 2572 3713 1747 
Q 3713 922 3314 415 
Q 2916 -91 2278 -91 
Q 1894 -91 1617 61 
Q 1341 213 1159 525 
L 1159 0 
L 581 0 
L 581 4863 
L 1159 4863 
L 1159 2969 
z
" transform="scale(0.015625)"/>
      <path id="DejaVuSans-6c" d="M 603 4863 
L 1178 4863 
L 1178 0 
L 603 0 
L 603 4863 
z
" transform="scale(0.015625)"/>
      <path id="DejaVuSans-65" d="M 3597 1894 
L 3597 1613 
L 953 1613 
Q 991 1019 1311 708 
Q 1631 397 2203 397 
Q 2534 397 2845 478 
Q 3156 559 3463 722 
L 3463 178 
Q 3153 47 2828 -22 
Q 2503 -91 2169 -91 
Q 1331 -91 842 396 
Q 353 884 353 1716 
Q 353 2575 817 3079 
Q 1281 3584 2069 3584 
Q 2775 3584 3186 3129 
Q 3597 2675 3597 1894 
z
M 3022 2063 
Q 3016 2534 2758 2815 
Q 2500 3097 2075 3097 
Q 1594 3097 1305 2825 
Q 1016 2553 972 2059 
L 3022 2063 
z
" transform="scale(0.015625)"/>
     </defs>
     <use xlink:href="#DejaVuSans-44"/>
     <use xlink:href="#DejaVuSans-72" x="77.001953"/>
     <use xlink:href="#DejaVuSans-61" x="118.115234"/>
     <use xlink:href="#DejaVuSans-77" x="179.394531"/>
     <use xlink:href="#DejaVuSans-61" x="261.181641"/>
     <use xlink:href="#DejaVuSans-62" x="322.460938"/>
     <use xlink:href="#DejaVuSans-6c" x="385.9375"/>
     <use xlink:href="#DejaVuSans-65" x="413.720703"/>
    </g>
   </g>
   <g id="text_2">
    <!-- Container -->
    <g transform="translate(96.472969 98.543125) scale(0.14 -0.14)">
     <defs>
      <path id="DejaVuSans-43" d="M 4122 4306 
L 4122 3641 
Q 3803 3938 3442 4084 
Q 3081 4231 2675 4231 
Q 1875 4231 1450 3742 
Q 1025 3253 1025 2328 
Q 1025 1406 1450 917 
Q 1875 428 2675 428 
Q 3081 428 3442 575 
Q 3803 722 4122 1019 
L 4122 359 
Q 3791 134 3420 21 
Q 3050 -91 2638 -91 
Q 1578 -91 968 557 
Q 359 1206 359 2328 
Q 359 3453 968 4101 
Q 1578 4750 2638 4750 
Q 3056 4750 3426 4639 
Q 3797 4528 4122 4306 
z
" transform="scale(0.015625)"/>
      <path id="DejaVuSans-6f" d="M 1959 3097 
Q 1497 3097 1228 2736 
Q 959 2375 959 1747 
Q 959 1119 1226 758 
Q 1494 397 1959 397 
Q 2419 397 2687 759 
Q 2956 1122 2956 1747 
Q 2956 2369 2687 2733 
Q 2419 3097 1959 3097 
z
M 1959 3584 
Q 2709 3584 3137 3096 
Q 3566 2609 3566 1747 
Q 3566 888 3137 398 
Q 2709 -91 1959 -91 
Q 1206 -91 779 398 
Q 353 888 353 1747 
Q 353 2609 779 3096 
Q 1206 3584 1959 3584 
z
" transform="scale(0.015625)"/>
      <path id="DejaVuSans-6e" d="M 3513 2113 
L 3513 0 
L 2938 0 
L 2938 2094 
Q 2938 2591 2744 2837 
Q 2550 3084 2163 3084 
Q 1697 3084 1428 2787 
Q 1159 2491 1159 1978 
L 1159 0 
L 581 0 
L 581 3500 
L 1159 3500 
L 1159 2956 
Q 1366 3272 1645 3428 
Q 1925 3584 2291 3584 
Q 2894 3584 3203 3211 
Q 3513 2838 3513 2113 
z
" transform="scale(0.015625)"/>
      <path id="DejaVuSans-74" d="M 1172 4494 
L 1172 3500 
L 2356 3500 
L 2356 3053 
L 1172 3053 
L 1172 1153 
Q 1172 725 1289 603 
Q 1406 481 1766 481 
L 2356 481 
L 2356 0 
L 1766 0 
Q 1100 0 847 248 
Q 594 497 594 1153 
L 594 3053 
L 172 3053 
L 172 3500 
L 594 3500 
L 594 4494 
L 1172 4494 
z
" transform="scale(0.015625)"/>
      <path id="DejaVuSans-69" d="M 603 3500 
L 1178 3500 
L 1178 0 
L 603 0 
L 603 3500 
z
M 603 4863 
L 1178 4863 
L 1178 4134 
L 603 4134 
L 603 4863 
z
" transform="scale(0.015625)"/>
     </defs>
     <use xlink:href="#DejaVuSans-43"/>
     <use xlink:href="#DejaVuSans-6f" x="69.824219"/>
     <use xlink:href="#DejaVuSans-6e" x="131.005859"/>
     <use xlink:href="#DejaVuSans-74" x="194.384766"/>
     <use xlink:href="#DejaVuSans-61" x="233.59375"/>
     <use xlink:href="#DejaVuSans-69" x="294.873047"/>
     <use xlink:href="#DejaVuSans-6e" x="322.65625"/>
     <use xlink:href="#DejaVuSans-65" x="386.035156"/>
     <use xlink:href="#DejaVuSans-72" x="447.558594"/>
    </g>
   </g>
   <g id="text_3">
    <!-- Layout -->
    <g transform="translate(34.883281 170.543125) scale(0.14 -0.14)">
     <defs>
      <path id="DejaVuSans-4c" d="M 628 4666 
L 1259 4666 
L 1259 531 
L 3531 531 
L 3531 0 
L 628 0 
L 628 4666 
z
" transform="scale(0.015625)"/>
      <path id="DejaVuSans-79" d="M 2059 -325 
Q 1816 -950 1584 -1140 
Q 1353 -1331 966 -1331 
L 506 -1331 
L 506 -850 
L 844 -850 
Q 1081 -850 1212 -737 
Q 1344 -625 1503 -206 
L 1606 56 
L 191 3500 
L 800 3500 
L 1894 763 
L 2988 3500 
L 3597 3500 
L 2059 -325 
z
" transform="scale(0.015625)"/>
      <path id="DejaVuSans-75" d="M 544 1381 
L 544 3500 
L 1119 3500 
L 1119 1403 
Q 1119 906 1312 657 
Q 1506 409 1894 409 
Q 2359 409 2629 706 
Q 2900 1003 2900 1516 
L 2900 3500 
L 3475 3500 
L 3475 0 
L 2900 0 
L 2900 538 
Q 2691 219 2414 64 
Q 2138 -91 1772 -91 
Q 1169 -91 856 284 
Q 544 659 544 1381 
z
M 1991 3584 
L 1991 3584 
z
" transform="scale(0.015625)"/>
     </defs>
     <use xlink:href="#DejaVuSans-4c"/>
     <use xlink:href="#DejaVuSans-61" x="55.712891"/>
     <use xlink:href="#DejaVuSans-79" x="116.992188"/>
     <use xlink:href="#DejaVuSans-6f" x="176.171875"/>
     <use xlink:href="#DejaVuSans-75" x="237.353516"/>
     <use xlink:href="#DejaVuSans-74" x="300.732422"/>
    </g>
   </g>
   <g id="text_4">
    <!-- LayoutGrid -->
    <g transform="translate(20.193125 242.543125) scale(0.14 -0.14)">
     <defs>
      <path id="DejaVuSans-47" d="M 3809 666 
L 3809 1919 
L 2778 1919 
L 2778 2438 
L 4434 2438 
L 4434 434 
Q 4069 175 3628 42 
Q 3188 -91 2688 -91 
Q 1594 -91 976 548 
Q 359 1188 359 2328 
Q 359 3472 976 4111 
Q 1594 4750 2688 4750 
Q 3144 4750 3555 4637 
Q 3966 4525 4313 4306 
L 4313 3634 
Q 3963 3931 3569 4081 
Q 3175 4231 2741 4231 
Q 1884 4231 1454 3753 
Q 1025 3275 1025 2328 
Q 1025 1384 1454 906 
Q 1884 428 2741 428 
Q 3075 428 3337 486 
Q 3600 544 3809 666 
z
" transform="scale(0.015625)"/>
      <path id="DejaVuSans-64" d="M 2906 2969 
L 2906 4863 
L 3481 4863 
L 3481 0 
L 2906 0 
L 2906 525 
Q 2725 213 2448 61 
Q 2172 -91 1784 -91 
Q 1150 -91 751 415 
Q 353 922 353 1747 
Q 353 2572 751 3078 
Q 1150 3584 1784 3584 
Q 2172 3584 2448 3432 
Q 2725 3281 2906 2969 
z
M 947 1747 
Q 947 1113 1208 752 
Q 1469 391 1925 391 
Q 2381 391 2643 752 
Q 2906 1113 2906 1747 
Q 2906 2381 2643 2742 
Q 2381 3103 1925 3103 
Q 1469 3103 1208 2742 
Q 947 2381 947 1747 
z
" transform="scale(0.015625)"/>
     </defs>
     <use xlink:href="#DejaVuSans-4c"/>
     <use xlink:href="#DejaVuSans-61" x="55.712891"/>
     <use xlink:href="#DejaVuSans-79" x="116.992188"/>
     <use xlink:href="#DejaVuSans-6f" x="176.171875"/>
     <use xlink:href="#DejaVuSans-75" x="237.353516"/>
     <use xlink:href="#DejaVuSans-74" x="300.732422"/>
     <use xlink:href="#DejaVuSans-47" x="339.941406"/>
     <use xlink:href="#DejaVuSans-72" x="417.431641"/>
     <use xlink:href="#DejaVuSans-69" x="458.544922"/>
     <use xlink:href="#DejaVuSans-64" x="486.328125"/>
    </g>
   </g>
   <g id="text_5">
    <!-- LayoutH -->
    <g transform="translate(29.619063 325.768438) scale(0.14 -0.14)">
     <defs>
      <path id="DejaVuSans-48" d="M 628 4666 
L 1259 4666 
L 1259 2753 
L 3553 2753 
L 3553 4666 
L 4184 4666 
L 4184 0 
L 3553 0 
L 3553 2222 
L 1259 2222 
L 1259 0 
L 628 0 
L 628 4666 
z
" transform="scale(0.015625)"/>
     </defs>
     <use xlink:href="#DejaVuSans-4c"/>
     <use xlink:href="#DejaVuSans-61" x="55.712891"/>
     <use xlink:href="#DejaVuSans-79" x="116.992188"/>
     <use xlink:href="#DejaVuSans-6f" x="176.171875"/>
     <use xlink:href="#DejaVuSans-75" x="237.353516"/>
     <use xlink:href="#DejaVuSans-74" x="300.732422"/>
     <use xlink:href="#DejaVuSans-48" x="339.941406"/>
    </g>
    <!-- LayoutV -->
    <g transform="translate(30.094844 339.317813) scale(0.14 -0.14)">
     <defs>
      <path id="DejaVuSans-56" d="M 1831 0 
L 50 4666 
L 709 4666 
L 2188 738 
L 3669 4666 
L 4325 4666 
L 2547 0 
L 1831 0 
z
" transform="scale(0.015625)"/>
     </defs>
     <use xlink:href="#DejaVuSans-4c"/>
     <use xlink:href="#DejaVuSans-61" x="55.712891"/>
     <use xlink:href="#DejaVuSans-79" x="116.992188"/>
     <use xlink:href="#DejaVuSans-6f" x="176.171875"/>
     <use xlink:href="#DejaVuSans-75" x="237.353516"/>
     <use xlink:href="#DejaVuSans-74" x="300.732422"/>
     <use xlink:href="#DejaVuSans-56" x="339.941406"/>
    </g>
   </g>
   <g id="text_6">
    <!-- Diagram -->
    <g transform="translate(172.625937 170.543125) scale(0.14 -0.14)">
     <defs>
      <path id="DejaVuSans-67" d="M 2906 1791 
Q 2906 2416 2648 2759 
Q 2391 3103 1925 3103 
Q 1463 3103 1205 2759 
Q 947 2416 947 1791 
Q 947 1169 1205 825 
Q 1463 481 1925 481 
Q 2391 481 2648 825 
Q 2906 1169 2906 1791 
z
M 3481 434 
Q 3481 -459 3084 -895 
Q 2688 -1331 1869 -1331 
Q 1566 -1331 1297 -1286 
Q 1028 -1241 775 -1147 
L 775 -588 
Q 1028 -725 1275 -790 
Q 1522 -856 1778 -856 
Q 2344 -856 2625 -561 
Q 2906 -266 2906 331 
L 2906 616 
Q 2728 306 2450 153 
Q 2172 0 1784 0 
Q 1141 0 747 490 
Q 353 981 353 1791 
Q 353 2603 747 3093 
Q 1141 3584 1784 3584 
Q 2172 3584 2450 3431 
Q 2728 3278 2906 2969 
L 2906 3500 
L 3481 3500 
L 3481 434 
z
" transform="scale(0.015625)"/>
      <path id="DejaVuSans-6d" d="M 3328 2828 
Q 3544 3216 3844 3400 
Q 4144 3584 4550 3584 
Q 5097 3584 5394 3201 
Q 5691 2819 5691 2113 
L 5691 0 
L 5113 0 
L 5113 2094 
Q 5113 2597 4934 2840 
Q 4756 3084 4391 3084 
Q 3944 3084 3684 2787 
Q 3425 2491 3425 1978 
L 3425 0 
L 2847 0 
L 2847 2094 
Q 2847 2600 2669 2842 
Q 2491 3084 2119 3084 
Q 1678 3084 1418 2786 
Q 1159 2488 1159 1978 
L 1159 0 
L 581 0 
L 581 3500 
L 1159 3500 
L 1159 2956 
Q 1356 3278 1631 3431 
Q 1906 3584 2284 3584 
Q 2666 3584 2933 3390 
Q 3200 3197 3328 2828 
z
" transform="scale(0.015625)"/>
     </defs>
     <use xlink:href="#DejaVuSans-44"/>
     <use xlink:href="#DejaVuSans-69" x="77.001953"/>
     <use xlink:href="#DejaVuSans-61" x="104.785156"/>
     <use xlink:href="#DejaVuSans-67" x="166.064453"/>
     <use xlink:href="#DejaVuSans-72" x="229.541016"/>
     <use xlink:href="#DejaVuSans-61" x="270.654297"/>
     <use xlink:href="#DejaVuSans-6d" x="331.933594"/>
    </g>
   </g>
   <g id="text_7">
    <!-- Graph -->
    <g transform="translate(181.208594 317.7835) scale(0.14 -0.14)">
     <defs>
      <path id="DejaVuSans-70" d="M 1159 525 
L 1159 -1331 
L 581 -1331 
L 581 3500 
L 1159 3500 
L 1159 2969 
Q 1341 3281 1617 3432 
Q 1894 3584 2278 3584 
Q 2916 3584 3314 3078 
Q 3713 2572 3713 1747 
Q 3713 922 3314 415 
Q 2916 -91 2278 -91 
Q 1894 -91 1617 61 
Q 1341 213 1159 525 
z
M 3116 1747 
Q 3116 2381 2855 2742 
Q 2594 3103 2138 3103 
Q 1681 3103 1420 2742 
Q 1159 2381 1159 1747 
Q 1159 1113 1420 752 
Q 1681 391 2138 391 
Q 2594 391 2855 752 
Q 3116 1113 3116 1747 
z
" transform="scale(0.015625)"/>
      <path id="DejaVuSans-68" d="M 3513 2113 
L 3513 0 
L 2938 0 
L 2938 2094 
Q 2938 2591 2744 2837 
Q 2550 3084 2163 3084 
Q 1697 3084 1428 2787 
Q 1159 2491 1159 1978 
L 1159 0 
L 581 0 
L 581 4863 
L 1159 4863 
L 1159 2956 
Q 1366 3272 1645 3428 
Q 1925 3584 2291 3584 
Q 2894 3584 3203 3211 
Q 3513 2838 3513 2113 
z
" transform="scale(0.015625)"/>
     </defs>
     <use xlink:href="#DejaVuSans-47"/>
     <use xlink:href="#DejaVuSans-72" x="77.490234"/>
     <use xlink:href="#DejaVuSans-61" x="118.603516"/>
     <use xlink:href="#DejaVuSans-70" x="179.882812"/>
     <use xlink:href="#DejaVuSans-68" x="243.359375"/>
    </g>
    <!-- GraphQuad -->
    <g transform="translate(162.528437 331.332875) scale(0.14 -0.14)">
     <defs>
      <path id="DejaVuSans-51" d="M 2522 4238 
Q 1834 4238 1429 3725 
Q 1025 3213 1025 2328 
Q 1025 1447 1429 934 
Q 1834 422 2522 422 
Q 3209 422 3611 934 
Q 4013 1447 4013 2328 
Q 4013 3213 3611 3725 
Q 3209 4238 2522 4238 
z
M 3406 84 
L 4238 -825 
L 3475 -825 
L 2784 -78 
Q 2681 -84 2626 -87 
Q 2572 -91 2522 -91 
Q 1538 -91 948 567 
Q 359 1225 359 2328 
Q 359 3434 948 4092 
Q 1538 4750 2522 4750 
Q 3503 4750 4090 4092 
Q 4678 3434 4678 2328 
Q 4678 1516 4351 937 
Q 4025 359 3406 84 
z
" transform="scale(0.015625)"/>
     </defs>
     <use xlink:href="#DejaVuSans-47"/>
     <use xlink:href="#DejaVuSans-72" x="77.490234"/>
     <use xlink:href="#DejaVuSans-61" x="118.603516"/>
     <use xlink:href="#DejaVuSans-70" x="179.882812"/>
     <use xlink:href="#DejaVuSans-68" x="243.359375"/>
     <use xlink:href="#DejaVuSans-51" x="306.738281"/>
     <use xlink:href="#DejaVuSans-75" x="385.449219"/>
     <use xlink:href="#DejaVuSans-61" x="448.828125"/>
     <use xlink:href="#DejaVuSans-64" x="510.107422"/>
    </g>
    <!-- GraphLog -->
    <g transform="translate(168.70375 344.88225) scale(0.14 -0.14)">
     <use xlink:href="#DejaVuSans-47"/>
     <use xlink:href="#DejaVuSans-72" x="77.490234"/>
     <use xlink:href="#DejaVuSans-61" x="118.603516"/>
     <use xlink:href="#DejaVuSans-70" x="179.882812"/>
     <use xlink:href="#DejaVuSans-68" x="243.359375"/>
     <use xlink:href="#DejaVuSans-4c" x="306.738281"/>
     <use xlink:href="#DejaVuSans-6f" x="360.701172"/>
     <use xlink:href="#DejaVuSans-67" x="421.882812"/>
    </g>
    <!-- GraphPolar -->
    <g transform="translate(163.846406 358.431625) scale(0.14 -0.14)">
     <defs>
      <path id="DejaVuSans-50" d="M 1259 4147 
L 1259 2394 
L 2053 2394 
Q 2494 2394 2734 2622 
Q 2975 2850 2975 3272 
Q 2975 3691 2734 3919 
Q 2494 4147 2053 4147 
L 1259 4147 
z
M 628 4666 
L 2053 4666 
Q 2838 4666 3239 4311 
Q 3641 3956 3641 3272 
Q 3641 2581 3239 2228 
Q 2838 1875 2053 1875 
L 1259 1875 
L 1259 0 
L 628 0 
L 628 4666 
z
" transform="scale(0.015625)"/>
     </defs>
     <use xlink:href="#DejaVuSans-47"/>
     <use xlink:href="#DejaVuSans-72" x="77.490234"/>
     <use xlink:href="#DejaVuSans-61" x="118.603516"/>
     <use xlink:href="#DejaVuSans-70" x="179.882812"/>
     <use xlink:href="#DejaVuSans-68" x="243.359375"/>
     <use xlink:href="#DejaVuSans-50" x="306.738281"/>
     <use xlink:href="#DejaVuSans-6f" x="363.416016"/>
     <use xlink:href="#DejaVuSans-6c" x="424.597656"/>
     <use xlink:href="#DejaVuSans-61" x="452.380859"/>
     <use xlink:href="#DejaVuSans-72" x="513.660156"/>
    </g>
    <!-- GraphSmith -->
    <g transform="translate(160.821094 371.981) scale(0.14 -0.14)">
     <defs>
      <path id="DejaVuSans-53" d="M 3425 4513 
L 3425 3897 
Q 3066 4069 2747 4153 
Q 2428 4238 2131 4238 
Q 1616 4238 1336 4038 
Q 1056 3838 1056 3469 
Q 1056 3159 1242 3001 
Q 1428 2844 1947 2747 
L 2328 2669 
Q 3034 2534 3370 2195 
Q 3706 1856 3706 1288 
Q 3706 609 3251 259 
Q 2797 -91 1919 -91 
Q 1588 -91 1214 -16 
Q 841 59 441 206 
L 441 856 
Q 825 641 1194 531 
Q 1563 422 1919 422 
Q 2459 422 2753 634 
Q 3047 847 3047 1241 
Q 3047 1584 2836 1778 
Q 2625 1972 2144 2069 
L 1759 2144 
Q 1053 2284 737 2584 
Q 422 2884 422 3419 
Q 422 4038 858 4394 
Q 1294 4750 2059 4750 
Q 2388 4750 2728 4690 
Q 3069 4631 3425 4513 
z
" transform="scale(0.015625)"/>
     </defs>
     <use xlink:href="#DejaVuSans-47"/>
     <use xlink:href="#DejaVuSans-72" x="77.490234"/>
     <use xlink:href="#DejaVuSans-61" x="118.603516"/>
     <use xlink:href="#DejaVuSans-70" x="179.882812"/>
     <use xlink:href="#DejaVuSans-68" x="243.359375"/>
     <use xlink:href="#DejaVuSans-53" x="306.738281"/>
     <use xlink:href="#DejaVuSans-6d" x="370.214844"/>
     <use xlink:href="#DejaVuSans-69" x="467.626953"/>
     <use xlink:href="#DejaVuSans-74" x="495.410156"/>
     <use xlink:href="#DejaVuSans-68" x="534.619141"/>
    </g>
    <!-- BarChart -->
    <g transform="translate(171.474219 385.530375) scale(0.14 -0.14)">
     <defs>
      <path id="DejaVuSans-42" d="M 1259 2228 
L 1259 519 
L 2272 519 
Q 2781 519 3026 730 
Q 3272 941 3272 1375 
Q 3272 1813 3026 2020 
Q 2781 2228 2272 2228 
L 1259 2228 
z
M 1259 4147 
L 1259 2741 
L 2194 2741 
Q 2656 2741 2882 2914 
Q 3109 3088 3109 3444 
Q 3109 3797 2882 3972 
Q 2656 4147 2194 4147 
L 1259 4147 
z
M 628 4666 
L 2241 4666 
Q 2963 4666 3353 4366 
Q 3744 4066 3744 3513 
Q 3744 3084 3544 2831 
Q 3344 2578 2956 2516 
Q 3422 2416 3680 2098 
Q 3938 1781 3938 1306 
Q 3938 681 3513 340 
Q 3088 0 2303 0 
L 628 0 
L 628 4666 
z
" transform="scale(0.015625)"/>
     </defs>
     <use xlink:href="#DejaVuSans-42"/>
     <use xlink:href="#DejaVuSans-61" x="68.603516"/>
     <use xlink:href="#DejaVuSans-72" x="129.882812"/>
     <use xlink:href="#DejaVuSans-43" x="170.996094"/>
     <use xlink:href="#DejaVuSans-68" x="240.820312"/>
     <use xlink:href="#DejaVuSans-61" x="304.199219"/>
     <use xlink:href="#DejaVuSans-72" x="365.478516"/>
     <use xlink:href="#DejaVuSans-74" x="406.591797"/>
    </g>
    <!-- Pie -->
    <g transform="translate(192.364844 399.07975) scale(0.14 -0.14)">
     <use xlink:href="#DejaVuSans-50"/>
     <use xlink:href="#DejaVuSans-69" x="58.052734"/>
     <use xlink:href="#DejaVuSans-65" x="85.835938"/>
    </g>
   </g>
   <g id="text_8">
    <!-- Component -->
    <g transform="translate(486.039531 98.543125) scale(0.14 -0.14)">
     <use xlink:href="#DejaVuSans-43"/>
     <use xlink:href="#DejaVuSans-6f" x="69.824219"/>
     <use xlink:href="#DejaVuSans-6d" x="131.005859"/>
     <use xlink:href="#DejaVuSans-70" x="228.417969"/>
     <use xlink:href="#DejaVuSans-6f" x="291.894531"/>
     <use xlink:href="#DejaVuSans-6e" x="353.076172"/>
     <use xlink:href="#DejaVuSans-65" x="416.455078"/>
     <use xlink:href="#DejaVuSans-6e" x="477.978516"/>
     <use xlink:href="#DejaVuSans-74" x="541.357422"/>
    </g>
   </g>
   <g id="text_9">
    <!-- Element -->
    <g transform="translate(389.698906 170.543125) scale(0.14 -0.14)">
     <defs>
      <path id="DejaVuSans-45" d="M 628 4666 
L 3578 4666 
L 3578 4134 
L 1259 4134 
L 1259 2753 
L 3481 2753 
L 3481 2222 
L 1259 2222 
L 1259 531 
L 3634 531 
L 3634 0 
L 628 0 
L 628 4666 
z
" transform="scale(0.015625)"/>
     </defs>
     <use xlink:href="#DejaVuSans-45"/>
     <use xlink:href="#DejaVuSans-6c" x="63.183594"/>
     <use xlink:href="#DejaVuSans-65" x="90.966797"/>
     <use xlink:href="#DejaVuSans-6d" x="152.490234"/>
     <use xlink:href="#DejaVuSans-65" x="249.902344"/>
     <use xlink:href="#DejaVuSans-6e" x="311.425781"/>
     <use xlink:href="#DejaVuSans-74" x="374.804688"/>
    </g>
   </g>
   <g id="text_10">
    <!-- Discrete -->
    <g transform="translate(317.771094 242.543125) scale(0.14 -0.14)">
     <defs>
      <path id="DejaVuSans-73" d="M 2834 3397 
L 2834 2853 
Q 2591 2978 2328 3040 
Q 2066 3103 1784 3103 
Q 1356 3103 1142 2972 
Q 928 2841 928 2578 
Q 928 2378 1081 2264 
Q 1234 2150 1697 2047 
L 1894 2003 
Q 2506 1872 2764 1633 
Q 3022 1394 3022 966 
Q 3022 478 2636 193 
Q 2250 -91 1575 -91 
Q 1294 -91 989 -36 
Q 684 19 347 128 
L 347 722 
Q 666 556 975 473 
Q 1284 391 1588 391 
Q 1994 391 2212 530 
Q 2431 669 2431 922 
Q 2431 1156 2273 1281 
Q 2116 1406 1581 1522 
L 1381 1569 
Q 847 1681 609 1914 
Q 372 2147 372 2553 
Q 372 3047 722 3315 
Q 1072 3584 1716 3584 
Q 2034 3584 2315 3537 
Q 2597 3491 2834 3397 
z
" transform="scale(0.015625)"/>
      <path id="DejaVuSans-63" d="M 3122 3366 
L 3122 2828 
Q 2878 2963 2633 3030 
Q 2388 3097 2138 3097 
Q 1578 3097 1268 2742 
Q 959 2388 959 1747 
Q 959 1106 1268 751 
Q 1578 397 2138 397 
Q 2388 397 2633 464 
Q 2878 531 3122 666 
L 3122 134 
Q 2881 22 2623 -34 
Q 2366 -91 2075 -91 
Q 1284 -91 818 406 
Q 353 903 353 1747 
Q 353 2603 823 3093 
Q 1294 3584 2113 3584 
Q 2378 3584 2631 3529 
Q 2884 3475 3122 3366 
z
" transform="scale(0.015625)"/>
     </defs>
     <use xlink:href="#DejaVuSans-44"/>
     <use xlink:href="#DejaVuSans-69" x="77.001953"/>
     <use xlink:href="#DejaVuSans-73" x="104.785156"/>
     <use xlink:href="#DejaVuSans-63" x="156.884766"/>
     <use xlink:href="#DejaVuSans-72" x="211.865234"/>
     <use xlink:href="#DejaVuSans-65" x="250.728516"/>
     <use xlink:href="#DejaVuSans-74" x="312.251953"/>
     <use xlink:href="#DejaVuSans-65" x="351.460938"/>
    </g>
   </g>
   <g id="text_11">
    <!-- PolyLine -->
    <g transform="translate(317.753594 317.791375) scale(0.14 -0.14)">
     <use xlink:href="#DejaVuSans-50"/>
     <use xlink:href="#DejaVuSans-6f" x="56.677734"/>
     <use xlink:href="#DejaVuSans-6c" x="117.859375"/>
     <use xlink:href="#DejaVuSans-79" x="145.642578"/>
     <use xlink:href="#DejaVuSans-4c" x="204.822266"/>
     <use xlink:href="#DejaVuSans-69" x="260.535156"/>
     <use xlink:href="#DejaVuSans-6e" x="288.318359"/>
     <use xlink:href="#DejaVuSans-65" x="351.697266"/>
    </g>
    <!-- Scatter -->
    <g transform="translate(321.424219 331.34075) scale(0.14 -0.14)">
     <use xlink:href="#DejaVuSans-53"/>
     <use xlink:href="#DejaVuSans-63" x="63.476562"/>
     <use xlink:href="#DejaVuSans-61" x="118.457031"/>
     <use xlink:href="#DejaVuSans-74" x="179.736328"/>
     <use xlink:href="#DejaVuSans-74" x="218.945312"/>
     <use xlink:href="#DejaVuSans-65" x="258.154297"/>
     <use xlink:href="#DejaVuSans-72" x="319.677734"/>
    </g>
    <!-- ErrorBar -->
    <g transform="translate(317.650781 344.890125) scale(0.14 -0.14)">
     <use xlink:href="#DejaVuSans-45"/>
     <use xlink:href="#DejaVuSans-72" x="63.183594"/>
     <use xlink:href="#DejaVuSans-72" x="102.546875"/>
     <use xlink:href="#DejaVuSans-6f" x="141.410156"/>
     <use xlink:href="#DejaVuSans-72" x="202.591797"/>
     <use xlink:href="#DejaVuSans-42" x="243.705078"/>
     <use xlink:href="#DejaVuSans-61" x="312.308594"/>
     <use xlink:href="#DejaVuSans-72" x="373.587891"/>
    </g>
    <!-- LineFill -->
    <g transform="translate(322.738906 358.4395) scale(0.14 -0.14)">
     <defs>
      <path id="DejaVuSans-46" d="M 628 4666 
L 3309 4666 
L 3309 4134 
L 1259 4134 
L 1259 2759 
L 3109 2759 
L 3109 2228 
L 1259 2228 
L 1259 0 
L 628 0 
L 628 4666 
z
" transform="scale(0.015625)"/>
     </defs>
     <use xlink:href="#DejaVuSans-4c"/>
     <use xlink:href="#DejaVuSans-69" x="55.712891"/>
     <use xlink:href="#DejaVuSans-6e" x="83.496094"/>
     <use xlink:href="#DejaVuSans-65" x="146.875"/>
     <use xlink:href="#DejaVuSans-46" x="208.398438"/>
     <use xlink:href="#DejaVuSans-69" x="258.667969"/>
     <use xlink:href="#DejaVuSans-6c" x="286.451172"/>
     <use xlink:href="#DejaVuSans-6c" x="314.234375"/>
    </g>
    <!-- LinePolar -->
    <g transform="translate(314.729375 371.988875) scale(0.14 -0.14)">
     <use xlink:href="#DejaVuSans-4c"/>
     <use xlink:href="#DejaVuSans-69" x="55.712891"/>
     <use xlink:href="#DejaVuSans-6e" x="83.496094"/>
     <use xlink:href="#DejaVuSans-65" x="146.875"/>
     <use xlink:href="#DejaVuSans-50" x="208.398438"/>
     <use xlink:href="#DejaVuSans-6f" x="265.076172"/>
     <use xlink:href="#DejaVuSans-6c" x="326.257812"/>
     <use xlink:href="#DejaVuSans-61" x="354.041016"/>
     <use xlink:href="#DejaVuSans-72" x="415.320312"/>
    </g>
    <!-- Histogram -->
    <g transform="translate(310.3675 385.53825) scale(0.14 -0.14)">
     <use xlink:href="#DejaVuSans-48"/>
     <use xlink:href="#DejaVuSans-69" x="75.195312"/>
     <use xlink:href="#DejaVuSans-73" x="102.978516"/>
     <use xlink:href="#DejaVuSans-74" x="155.078125"/>
     <use xlink:href="#DejaVuSans-6f" x="194.287109"/>
     <use xlink:href="#DejaVuSans-67" x="255.46875"/>
     <use xlink:href="#DejaVuSans-72" x="318.945312"/>
     <use xlink:href="#DejaVuSans-61" x="360.058594"/>
     <use xlink:href="#DejaVuSans-6d" x="421.337891"/>
    </g>
    <!-- Contour -->
    <g transform="translate(318.731406 399.087625) scale(0.14 -0.14)">
     <use xlink:href="#DejaVuSans-43"/>
     <use xlink:href="#DejaVuSans-6f" x="69.824219"/>
     <use xlink:href="#DejaVuSans-6e" x="131.005859"/>
     <use xlink:href="#DejaVuSans-74" x="194.384766"/>
     <use xlink:href="#DejaVuSans-6f" x="233.59375"/>
     <use xlink:href="#DejaVuSans-75" x="294.775391"/>
     <use xlink:href="#DejaVuSans-72" x="358.154297"/>
    </g>
   </g>
   <g id="text_12">
    <!-- Point -->
    <g transform="translate(473.304688 323.064563) scale(0.14 -0.14)">
     <use xlink:href="#DejaVuSans-50"/>
     <use xlink:href="#DejaVuSans-6f" x="56.677734"/>
     <use xlink:href="#DejaVuSans-69" x="117.859375"/>
     <use xlink:href="#DejaVuSans-6e" x="145.642578"/>
     <use xlink:href="#DejaVuSans-74" x="209.021484"/>
    </g>
    <!-- Function -->
    <g transform="translate(460.909219 336.613938) scale(0.14 -0.14)">
     <use xlink:href="#DejaVuSans-46"/>
     <use xlink:href="#DejaVuSans-75" x="52.019531"/>
     <use xlink:href="#DejaVuSans-6e" x="115.398438"/>
     <use xlink:href="#DejaVuSans-63" x="178.777344"/>
     <use xlink:href="#DejaVuSans-74" x="233.757812"/>
     <use xlink:href="#DejaVuSans-69" x="272.966797"/>
     <use xlink:href="#DejaVuSans-6f" x="300.75"/>
     <use xlink:href="#DejaVuSans-6e" x="361.931641"/>
    </g>
    <!-- Line -->
    <g transform="translate(476.091563 350.163313) scale(0.14 -0.14)">
     <use xlink:href="#DejaVuSans-4c"/>
     <use xlink:href="#DejaVuSans-69" x="55.712891"/>
     <use xlink:href="#DejaVuSans-6e" x="83.496094"/>
     <use xlink:href="#DejaVuSans-65" x="146.875"/>
    </g>
    <!-- Segment -->
    <g transform="translate(459.178906 363.712688) scale(0.14 -0.14)">
     <use xlink:href="#DejaVuSans-53"/>
     <use xlink:href="#DejaVuSans-65" x="63.476562"/>
     <use xlink:href="#DejaVuSans-67" x="125"/>
     <use xlink:href="#DejaVuSans-6d" x="188.476562"/>
     <use xlink:href="#DejaVuSans-65" x="285.888672"/>
     <use xlink:href="#DejaVuSans-6e" x="347.412109"/>
     <use xlink:href="#DejaVuSans-74" x="410.791016"/>
    </g>
    <!-- Curve -->
    <g transform="translate(470.027812 377.262063) scale(0.14 -0.14)">
     <defs>
      <path id="DejaVuSans-76" d="M 191 3500 
L 800 3500 
L 1894 563 
L 2988 3500 
L 3597 3500 
L 2284 0 
L 1503 0 
L 191 3500 
z
" transform="scale(0.015625)"/>
     </defs>
     <use xlink:href="#DejaVuSans-43"/>
     <use xlink:href="#DejaVuSans-75" x="69.824219"/>
     <use xlink:href="#DejaVuSans-72" x="133.203125"/>
     <use xlink:href="#DejaVuSans-76" x="174.316406"/>
     <use xlink:href="#DejaVuSans-65" x="233.496094"/>
    </g>
    <!-- Bezier -->
    <g transform="translate(468.766719 390.811438) scale(0.14 -0.14)">
     <defs>
      <path id="DejaVuSans-7a" d="M 353 3500 
L 3084 3500 
L 3084 2975 
L 922 459 
L 3084 459 
L 3084 0 
L 275 0 
L 275 525 
L 2438 3041 
L 353 3041 
L 353 3500 
z
" transform="scale(0.015625)"/>
     </defs>
     <use xlink:href="#DejaVuSans-42"/>
     <use xlink:href="#DejaVuSans-65" x="68.603516"/>
     <use xlink:href="#DejaVuSans-7a" x="130.126953"/>
     <use xlink:href="#DejaVuSans-69" x="182.617188"/>
     <use xlink:href="#DejaVuSans-65" x="210.400391"/>
     <use xlink:href="#DejaVuSans-72" x="271.923828"/>
    </g>
    <!-- IntegralFill -->
    <g transform="translate(454.21875 404.360813) scale(0.14 -0.14)">
     <defs>
      <path id="DejaVuSans-49" d="M 628 4666 
L 1259 4666 
L 1259 0 
L 628 0 
L 628 4666 
z
" transform="scale(0.015625)"/>
     </defs>
     <use xlink:href="#DejaVuSans-49"/>
     <use xlink:href="#DejaVuSans-6e" x="29.492188"/>
     <use xlink:href="#DejaVuSans-74" x="92.871094"/>
     <use xlink:href="#DejaVuSans-65" x="132.080078"/>
     <use xlink:href="#DejaVuSans-67" x="193.603516"/>
     <use xlink:href="#DejaVuSans-72" x="257.080078"/>
     <use xlink:href="#DejaVuSans-61" x="298.193359"/>
     <use xlink:href="#DejaVuSans-6c" x="359.472656"/>
     <use xlink:href="#DejaVuSans-46" x="387.255859"/>
     <use xlink:href="#DejaVuSans-69" x="437.525391"/>
     <use xlink:href="#DejaVuSans-6c" x="465.308594"/>
     <use xlink:href="#DejaVuSans-6c" x="493.091797"/>
    </g>
    <!-- Circle -->
    <g transform="translate(471.026406 417.910188) scale(0.14 -0.14)">
     <use xlink:href="#DejaVuSans-43"/>
     <use xlink:href="#DejaVuSans-69" x="69.824219"/>
     <use xlink:href="#DejaVuSans-72" x="97.607422"/>
     <use xlink:href="#DejaVuSans-63" x="136.470703"/>
     <use xlink:href="#DejaVuSans-6c" x="191.451172"/>
     <use xlink:href="#DejaVuSans-65" x="219.234375"/>
    </g>
    <!-- Ellipse -->
    <g transform="translate(468.025156 431.459563) scale(0.14 -0.14)">
     <use xlink:href="#DejaVuSans-45"/>
     <use xlink:href="#DejaVuSans-6c" x="63.183594"/>
     <use xlink:href="#DejaVuSans-6c" x="90.966797"/>
     <use xlink:href="#DejaVuSans-69" x="118.75"/>
     <use xlink:href="#DejaVuSans-70" x="146.533203"/>
     <use xlink:href="#DejaVuSans-73" x="210.009766"/>
     <use xlink:href="#DejaVuSans-65" x="262.109375"/>
    </g>
    <!-- Rectangle -->
    <g transform="translate(455.809062 445.008938) scale(0.14 -0.14)">
     <defs>
      <path id="DejaVuSans-52" d="M 2841 2188 
Q 3044 2119 3236 1894 
Q 3428 1669 3622 1275 
L 4263 0 
L 3584 0 
L 2988 1197 
Q 2756 1666 2539 1819 
Q 2322 1972 1947 1972 
L 1259 1972 
L 1259 0 
L 628 0 
L 628 4666 
L 2053 4666 
Q 2853 4666 3247 4331 
Q 3641 3997 3641 3322 
Q 3641 2881 3436 2590 
Q 3231 2300 2841 2188 
z
M 1259 4147 
L 1259 2491 
L 2053 2491 
Q 2509 2491 2742 2702 
Q 2975 2913 2975 3322 
Q 2975 3731 2742 3939 
Q 2509 4147 2053 4147 
L 1259 4147 
z
" transform="scale(0.015625)"/>
     </defs>
     <use xlink:href="#DejaVuSans-52"/>
     <use xlink:href="#DejaVuSans-65" x="64.982422"/>
     <use xlink:href="#DejaVuSans-63" x="126.505859"/>
     <use xlink:href="#DejaVuSans-74" x="181.486328"/>
     <use xlink:href="#DejaVuSans-61" x="220.695312"/>
     <use xlink:href="#DejaVuSans-6e" x="281.974609"/>
     <use xlink:href="#DejaVuSans-67" x="345.353516"/>
     <use xlink:href="#DejaVuSans-6c" x="408.830078"/>
     <use xlink:href="#DejaVuSans-65" x="436.613281"/>
    </g>
    <!-- Bars -->
    <g transform="translate(475.063438 458.558313) scale(0.14 -0.14)">
     <use xlink:href="#DejaVuSans-42"/>
     <use xlink:href="#DejaVuSans-61" x="68.603516"/>
     <use xlink:href="#DejaVuSans-72" x="129.882812"/>
     <use xlink:href="#DejaVuSans-73" x="170.996094"/>
    </g>
    <!-- PieSlice -->
    <g transform="translate(463.875469 472.107688) scale(0.14 -0.14)">
     <use xlink:href="#DejaVuSans-50"/>
     <use xlink:href="#DejaVuSans-69" x="58.052734"/>
     <use xlink:href="#DejaVuSans-65" x="85.835938"/>
     <use xlink:href="#DejaVuSans-53" x="147.359375"/>
     <use xlink:href="#DejaVuSans-6c" x="210.835938"/>
     <use xlink:href="#DejaVuSans-69" x="238.619141"/>
     <use xlink:href="#DejaVuSans-63" x="266.402344"/>
     <use xlink:href="#DejaVuSans-65" x="321.382812"/>
    </g>
   </g>
   <g id="text_13">
    <!-- Annotations -->
    <g transform="translate(592.647188 170.543125) scale(0.14 -0.14)">
     <defs>
      <path id="DejaVuSans-41" d="M 2188 4044 
L 1331 1722 
L 3047 1722 
L 2188 4044 
z
M 1831 4666 
L 2547 4666 
L 4325 0 
L 3669 0 
L 3244 1197 
L 1141 1197 
L 716 0 
L 50 0 
L 1831 4666 
z
" transform="scale(0.015625)"/>
     </defs>
     <use xlink:href="#DejaVuSans-41"/>
     <use xlink:href="#DejaVuSans-6e" x="68.408203"/>
     <use xlink:href="#DejaVuSans-6e" x="131.787109"/>
     <use xlink:href="#DejaVuSans-6f" x="195.166016"/>
     <use xlink:href="#DejaVuSans-74" x="256.347656"/>
     <use xlink:href="#DejaVuSans-61" x="295.556641"/>
     <use xlink:href="#DejaVuSans-74" x="356.835938"/>
     <use xlink:href="#DejaVuSans-69" x="396.044922"/>
     <use xlink:href="#DejaVuSans-6f" x="423.828125"/>
     <use xlink:href="#DejaVuSans-6e" x="485.009766"/>
     <use xlink:href="#DejaVuSans-73" x="548.388672"/>
    </g>
   </g>
   <g id="text_14">
    <!-- Text -->
    <g transform="translate(620.5225 318.99375) scale(0.14 -0.14)">
     <defs>
      <path id="DejaVuSans-54" d="M -19 4666 
L 3928 4666 
L 3928 4134 
L 2272 4134 
L 2272 0 
L 1638 0 
L 1638 4134 
L -19 4134 
L -19 4666 
z
" transform="scale(0.015625)"/>
      <path id="DejaVuSans-78" d="M 3513 3500 
L 2247 1797 
L 3578 0 
L 2900 0 
L 1881 1375 
L 863 0 
L 184 0 
L 1544 1831 
L 300 3500 
L 978 3500 
L 1906 2253 
L 2834 3500 
L 3513 3500 
z
" transform="scale(0.015625)"/>
     </defs>
     <use xlink:href="#DejaVuSans-54"/>
     <use xlink:href="#DejaVuSans-65" x="44.083984"/>
     <use xlink:href="#DejaVuSans-78" x="103.857422"/>
     <use xlink:href="#DejaVuSans-74" x="163.037109"/>
    </g>
    <!-- Arrow -->
    <g transform="translate(614.408438 332.543125) scale(0.14 -0.14)">
     <use xlink:href="#DejaVuSans-41"/>
     <use xlink:href="#DejaVuSans-72" x="68.408203"/>
     <use xlink:href="#DejaVuSans-72" x="107.771484"/>
     <use xlink:href="#DejaVuSans-6f" x="146.634766"/>
     <use xlink:href="#DejaVuSans-77" x="207.816406"/>
    </g>
    <!-- Angle -->
    <g transform="translate(614.759531 346.0925) scale(0.14 -0.14)">
     <use xlink:href="#DejaVuSans-41"/>
     <use xlink:href="#DejaVuSans-6e" x="68.408203"/>
     <use xlink:href="#DejaVuSans-67" x="131.787109"/>
     <use xlink:href="#DejaVuSans-6c" x="195.263672"/>
     <use xlink:href="#DejaVuSans-65" x="223.046875"/>
    </g>
   </g>
  </g>
 </g>
 <defs>
  <clipPath id="pc0fca30625">
   <rect x="0" y="0" width="693.36" height="499.446"/>
  </clipPath>
 </defs>
</svg>
